<?xml version="1.0" encoding="utf-8"?>
<!-- Generator: Adobe Illustrator 21.0.2, SVG Export Plug-In . SVG Version: 6.00 Build 0)  -->
<svg version="1.1" id="Calque_1" xmlns="http://www.w3.org/2000/svg" xmlns:xlink="http://www.w3.org/1999/xlink" x="0px" y="0px"
	 viewBox="0 0 1500.9 1501.8" style="enable-background:new 0 0 1500.9 1501.8;" xml:space="preserve">
<g>
	<path d="M851.9,152.9c9.4,2.3,9.4,2.3,7.9,11.2c-0.6,3.7-1.3,7.4-2,11.3c13.8,3,27.1,5.9,40.7,8.9c1.4-5.3,3-10,3.9-14.8
		c0.8-4.7,3-5.8,7.1-3.8c1,0.5,2.2,0.7,3.7,1.2c-1.7,6.6-3.4,13.1-5.2,20c9.4,3,18.6,5.9,27.9,8.8c0.3,0.1,0.7,0.1,1,0.2
		c11.2,3.5,11.2,3.5,15.2-7.6c1-2.8,2.1-5.5,3.1-8.3c3.1,1.1,5.8,2.2,8.6,3.2c-2.4,6.6-4.6,13.1-7,19.8
		c12.8,5.2,25.4,10.4,38.6,15.8c2.9-6,5.8-12.2,9-18.8c2.9,1.3,5.6,2.5,8.7,3.8c-3,6.6-5.8,12.9-8.6,19.2
		c12.5,6.5,24.5,12.7,36.8,19.1c3.5-6,7-11.8,10.6-17.9c2.9,1.6,5.5,3,8.4,4.7c-3.6,6.2-7,12.2-10.3,18.1
		c10.8,7.2,21.3,14.1,31.7,21.1c2.9,1.9,4.5,0.6,6-1.8c3-4.5,6.1-8.9,9.3-13.5c2.9,2,5.3,3.6,7.7,5.3c-4,5.7-8,11.3-12.2,17.4
		c3.2,2.3,6.2,4.4,9.1,6.7c7.2,5.5,14.4,10.9,21.4,16.5c2.2,1.8,3.5,1.7,5.3-0.5c3.5-4.4,7.2-8.6,11.1-13.3c2.5,1.9,4.9,3.8,7.5,5.9
		c-3.7,4.3-7.4,8.7-11.2,13c-1.6,1.8-2.6,3.4-0.3,5.5c9.5,8.6,18.9,17.2,29.3,26.6c4.6-5.1,9.2-10.2,14-15.6
		c2.6,2.9,4.6,5.1,7.4,8.1c-4,3.7-8.1,7.7-12.6,11.3c-2.3,1.9-2,3.4-0.2,5.3c7.8,8.4,15.6,16.6,23.1,25.2c2.3,2.6,4.1,2.1,6.2,0.3
		c4.1-3.5,8.2-7,12.3-10.5c0.4,0.2,0.8,0.3,1,0.5c5.8,6.1,5.8,6.1-0.5,11.5c-1.9,1.6-3.6,3.5-5.7,4.7c-4.7,2.7-3.6,5.3-0.8,8.8
		c6.7,8.3,13.1,16.9,19.5,25.4c1.7,2.3,3.2,2.7,5.7,0.7c4.4-3.4,9.1-6.4,13.7-9.5c0.4,0.2,0.8,0.2,0.9,0.4c4.6,6.5,4.6,6.6-2.2,11.7
		c-3.3,2.5-6.5,4.9-10.1,7.6c5.2,8.1,10.3,15.8,15.2,23.5c1.8,2.8,3.7,5.5,5.1,8.4c1.5,3,3.2,2.8,5.6,1.4c4.9-3,9.8-5.9,14.8-8.9
		c1.6,2.8,3.1,5.4,4.8,8.3c-6,3.5-11.9,6.9-18.2,10.5c6.4,12.3,12.8,24.6,19.4,37.2c6.1-2.7,12.4-5.5,19.1-8.5
		c1.3,2.8,2.4,5.4,3.8,8.4c-5.1,2.4-10,4.8-14.9,7c-2.7,1.2-3.9,2.1-2.5,5.4c4.6,10.5,8.8,21.2,13,31.8c1.1,2.7,2.7,3.4,5.4,2.2
		c3.8-1.6,7.8-2.7,11.5-4.4c3.4-1.6,5.2-1.2,5.9,2.7c0.2,1.4,1.1,2.7,1.9,4.5c-6.5,2.4-12.9,4.8-19.7,7.4c1.1,3.3,2.1,6.5,3.1,9.7
		c2.7,8.8,5.8,17.5,8.1,26.3c0.9,3.6,2.8,3.7,5.4,3c5.4-1.4,10.7-3,16.3-4.6c0.7,2.9,1.4,5.8,2.2,9.2c-5.5,1.5-10.8,3.3-16.2,4.3
		c-3.8,0.7-3.8,2.4-3.1,5.5c2.8,11.7,5.4,23.6,8.3,36.2c6.7-1,13.5-2,20.7-3.1c0.5,3,1,5.8,1.5,9c-6.5,1.3-13,2.6-20.2,4
		c0.8,7.2,1.6,14.3,2.4,21.4c0.6,5.4,1.3,10.8,1.8,16.2c0.2,2.6,0.3,4.2,4.1,3.4c5.6-1.1,11.5-1,17.7-1.5c0.2,3.2,0.4,6.2,0.6,9.6
		c-6.7,0.5-13.2,1.1-20.3,1.6c0,4.5-0.1,8.9,0,13.4c0.2,6,0.4,12,1.1,17.9c0.2,1.3,2.1,3.2,3.5,3.5c18.9,4,37.9,7.7,57,12.4
		c-20,4-40,8-60.2,12.1c-0.5,11.2-1,22.5-1.5,34c7.1,0.7,13.7,1.3,20.7,1.9c-0.3,3.3-0.5,6.2-0.8,9.8c-5.8-0.6-11.5-1-17.2-1.7
		c-2.4-0.3-3.9-0.1-4.2,2.6c-1.5,12.6-2.9,25.3-4.5,38.5c6.7,1.3,13.2,2.5,20.3,3.9c-0.5,3.1-1.1,6.1-1.6,9.3
		c-7.1-1.1-13.9-2.1-20.6-3.2c-2.9,12.8-5.6,24.8-8.5,36.8c-0.6,2.7-0.2,4,2.6,4.6c5.6,1.3,11.2,2.9,17,4.4
		c-0.8,3.2-1.6,6.1-2.5,9.3c-6.8-1.7-13.5-3.4-20.3-5.2c-4.2,13.4-8.2,26.1-12.4,39.5c6.3,2.4,12.7,4.8,19.5,7.4
		c-1.1,3-2.1,5.7-3.3,9c-5.6-2-10.9-3.6-16-5.8c-2.9-1.2-4.2-0.5-5.3,2.3c-4.2,10.6-8.5,21.2-13.1,31.7c-1.2,2.8-0.3,3.9,2,4.9
		c5.1,2.3,10.2,4.7,15.6,7.2c-1.3,2.9-2.5,5.6-3.9,8.8c-6.4-2.9-12.7-5.7-19.1-8.5c-6.4,12.3-12.7,24.3-19.2,36.7
		c5.9,3.5,11.8,7,18.1,10.7c-1.6,2.8-3.2,5.4-4.9,8.3c-6.1-3.4-12-6.7-18.2-10.2c-7.5,11.7-14.8,23.1-22.4,34.9
		c5.7,4,11.3,8.1,17.2,12.3c-1.8,2.5-3.6,5-5.6,7.8c-5.8-3.9-11.3-7.8-17.3-11.9c-3.5,4.6-6.9,9.1-10.3,13.5
		c-4.5,5.8-9.1,11.4-13.4,17.3c-0.6,0.8-0.2,3.2,0.6,4c4.2,4,8.7,7.7,13.5,11.8c-1.8,2.3-3.7,4.6-5.8,7.2
		c-5.5-4.5-10.9-8.9-16.4-13.4c-9.5,10.4-18.8,20.6-28.1,30.9c4.9,5,9.8,9.9,14.9,15c-2.3,2.1-4.5,4.1-7.2,6.4
		c-4.5-4.9-9.1-10-13.9-15.2c-10.9,10-20.8,19.2-31.3,28.9c4.4,5.3,8.8,10.6,13.4,16.1c-2.4,2-4.7,4.1-7.4,6.4
		c-3.9-4.6-7.5-9.1-11.4-13.4c-0.9-0.9-3.5-1.7-4.3-1.1c-10.3,7.8-20.5,15.8-30.9,23.8c3.9,5.6,7.8,11.2,12,17.1
		c-2.5,1.8-5.1,3.5-8,5.6c-4.2-5.9-8.1-11.5-12.1-17.1c-11.7,7.5-23.2,14.8-35.1,22.3c3.3,5.8,6.6,11.6,10.3,18
		c-2.6,1.6-5.2,3.1-8.3,5c-3.6-6.1-7-11.9-10.7-18.1c-7.9,4.1-15.6,8.2-23.3,12.3c-2.8,1.5-5.5,3.2-8.5,4.2
		c-4.9,1.6-4.9,4.2-2.7,8.1c2.4,4.3,4.2,8.9,6.4,13.6c-3,1.5-5.7,2.8-8.7,4.3c-3-6.3-6-12.6-9-19c-12.7,5.3-25.2,10.4-38.3,15.9
		c2.2,6.2,4.4,12.7,6.9,19.6c-2.8,1.1-5.6,2.2-8.9,3.5c-2-5.5-4.2-10.9-6-16.3c-0.9-2.9-2.5-3.2-4.9-2.4
		c-11.9,3.9-23.9,7.7-36.2,11.7c1.3,4.8,2.4,9.8,4,14.6c1.4,4.2,0.9,6.6-4.1,6.9c-1.2,0.1-2.4,0.6-4,1c-1.9-6.9-3.7-13.4-5.5-20.1
		c-13.5,3-26.8,6-40.5,9c0.8,5,1.4,9.9,2.3,14.7c1.1,6.3,1.1,6.3-5.4,6.9c-0.8,0.1-1.6,0.3-2.9,0.5c-1.3-6.8-2.6-13.6-3.9-20.5
		c-13.7,1.8-27,3.5-41,5.4c0.4,6.8,0.9,13.8,1.3,21.2c-3.2,0-5.9,0-9.4,0c-0.6-6.5-1.3-13.1-2-20.5c-11.1,0.6-22.2,1.3-33.9,1.9
		c-4.1,20.5-8.2,41-12.5,62.5c-4.3-21.4-8.3-41.9-12.4-62.5c-11.4-0.7-22.3-1.3-33.9-2c-0.8,6.9-1.5,13.7-2.3,20.5
		c-3.2,0-6.2,0-9.6,0c0.6-7.2,1.2-14.1,1.8-21.1c-13.8-1.8-27.2-3.6-41.2-5.4c-1.3,6.8-2.6,13.6-3.9,20.2c-0.7,0.1-1,0.2-1.2,0.1
		c-8.4-1.4-8.4-1.4-6.8-10.1c0.7-3.7,1.3-7.5,2.1-11.9c-13.5-3-26.9-5.9-40.7-8.9c-1.9,6.9-3.8,13.4-5.6,19.9
		c-0.6-0.1-0.9-0.1-1.1-0.2c-7.7-2.3-7.7-2.3-5.9-10.1c0.9-4,1.9-7.9,3-12.3c-13.1-4.1-26.1-8.3-39.6-12.5
		c-2.4,6.4-4.8,12.7-7.3,19.5c-2.9-1.1-5.8-2.1-9-3.3c2.4-6.6,4.7-13.1,7-19.6c-12.8-5.3-25.3-10.5-38.3-15.9
		c-2.9,6-5.9,12.2-9.1,18.8c-2.8-1.3-5.5-2.6-8.7-4.1c2.9-6.4,5.8-12.7,8.6-19c-12.5-6.5-24.5-12.8-36.8-19.2
		c-3.5,6-6.9,11.8-10.5,17.9c-2.9-1.6-5.4-3.1-8.4-4.7c3.5-6.2,6.8-12,10.3-18.2c-11.6-7.4-23.1-14.7-35-22.3
		c-3.9,5.5-7.9,11.1-12.1,17c-2.8-2-5.3-3.7-8-5.6c4.1-5.9,8-11.4,11.9-17.1c-10.4-8-20.5-16-30.8-23.7c-0.8-0.6-3.7,0.3-4.6,1.3
		c-3.8,4.1-7.3,8.5-11.1,13.1c-2.5-2.2-4.8-4.1-7.4-6.3c4.5-5.4,8.8-10.6,13.4-16.2c-10.1-9.4-20.2-18.6-31-28.7
		c-4.6,5.2-9.2,10.3-13.5,15.2c-3-2.8-5.2-4.9-7.3-6.9c3.7-3.8,7.3-7.8,11.2-11.5c2.6-2.5,2.8-4.1,0.1-6.8
		c-8.5-8.8-16.6-17.9-25.2-27.2c-5.2,4.3-10.7,8.7-16.3,13.3c-2-2.3-3.9-4.6-6-7.1c5.3-4.5,10.5-8.9,16.1-13.6
		c-5.1-6.6-10-13-14.8-19.4c-2.5-3.3-5.2-6.5-7.3-10c-2.4-3.9-4.7-3.7-7.9-1.1c-4,3.2-8.3,6-12.7,9.2c-1.9-2.6-3.7-5.1-5.6-7.8
		c5.2-3.6,10.4-7,15.4-10.7c0.8-0.6,1.4-2.8,0.9-3.6c-7-10.8-14.3-21.5-21.8-32.7c-5.8,3.2-11.8,6.5-18.1,10c-1.7-3-3.2-5.5-4.8-8.3
		c6.1-3.6,11.9-7,18-10.6c-6.4-12.3-12.7-24.4-19.2-36.8c-6.3,2.9-12.4,5.6-19,8.6c-1.4-3-2.7-5.8-4.1-8.7
		c6.5-3.1,12.6-5.9,18.7-8.9c-5-12.5-9.8-24.4-14.8-36.3c-0.3-0.8-3.1-1.3-4.4-0.9c-5.4,1.6-10.6,3.6-16.2,5.6
		c-1.1-3.2-2.1-5.9-3.2-9c6.6-2.5,12.9-4.8,19.6-7.3c-2.7-8.2-5.3-16.2-7.8-24.1c-1.2-3.8-2.5-7.5-3.3-11.4
		c-0.8-3.5-2.3-4.1-5.6-3.1c-5.2,1.6-10.5,2.8-16,4.3c-0.9-3.2-1.6-6-2.5-9.3c5.6-1.5,11.1-3.2,16.6-4.4c3-0.6,3.8-1.6,3.1-4.7
		c-2.9-11.9-5.5-23.8-8.5-36.7c-6.6,1-13.5,2-20.7,3.1c-0.5-3.1-1.1-6-1.6-9.3c6.8-1.3,13.4-2.5,20.6-3.9
		c-1.8-13.7-3.5-27.4-5.3-41.3c-7.1,0.6-13.7,1.2-20.6,1.9c-0.5-3.2-0.9-6.3-1.4-9.8c7-0.6,13.7-1.2,20.7-1.9c0-4.4,0.1-8.6,0-12.9
		c-0.1-3.5-0.7-6.9-0.7-10.4c-0.2-11.5-0.2-11.2-11.6-13.2c-15.8-2.8-31.5-6.1-47.2-9.1c-0.4-0.1-0.8-0.5-2.1-1.2
		c8.2-1.7,15.6-3.2,23.1-4.7c11.7-2.3,23.4-4.6,35-7.1c1.1-0.2,2.7-2,2.7-3.1c0.6-9.1,0.7-18.3,1.2-27.4c0.2-3.2-0.9-4.4-4.2-4.4
		c-5.5-0.1-10.9-0.8-16.9-1.3c0.4-3.1,0.8-6.1,1.3-9.7c6.8,0.4,13.5,0.9,20.8,1.4c1.8-13.7,3.5-27.1,5.3-40.7
		c-6.9-1.3-13.3-2.6-20.3-3.9c0.4-3,0.8-6,1.2-9.6c7.1,1.1,14,2.2,21,3.3c3-13.5,5.8-26.3,8.8-40.1c-6.5-1.9-13.2-3.8-20.1-5.8
		c0.8-3.2,1.5-6.2,2.3-9.5c6,1.7,11.7,3.3,17.5,4.7c1.1,0.3,3.5-0.6,3.8-1.5c3.9-12.2,7.5-24.6,11.4-37.3
		c-6.2-2.3-12.5-4.7-19.3-7.2c1-3,2-5.9,3.1-9.2c6.7,2.4,13.1,4.6,19.8,7c5.2-12.7,10.4-25.2,15.8-38.2c-6.2-3-12.4-5.9-18.8-9
		c1.4-3.1,2.6-5.8,4.1-8.9c6.4,2.9,12.6,5.8,19.1,8.7c5.1-9.7,10.1-19.4,15.2-29.1c4-7.5,4-7.5-3.5-11.9c-3.3-1.9-6.6-3.9-9.8-5.8
		c-0.1-0.1-0.2-0.3-0.6-0.8c1.4-2.5,2.9-5.2,4.6-8.2c6.1,3.5,12.1,6.9,18.3,10.4c7.5-11.7,14.7-23.1,22.2-34.8
		c-5.7-4-11.3-8.1-17.2-12.2c1.9-2.6,3.7-5.1,5.8-8c5.8,4,11.4,7.8,17.3,11.9c8.3-10.9,16.6-21.6,25.2-32.8
		c-5.3-4.5-10.7-9.1-16.1-13.7c2.3-2.6,4.3-5,6.5-7.5c4.6,3.9,9,7.7,13.5,11.2c1,0.8,3.5,1.3,4,0.7c8.8-9.4,17.5-19,26.3-28.7
		c-5.1-4.8-10-9.5-15.3-14.4c2.8-3,4.9-5.2,7.2-7.7c4.8,5.3,9.5,10.4,14.4,15.8c11.2-10.3,21.3-19.6,31.6-29
		c-4.5-5.4-8.8-10.6-13.4-16.2c2.4-2.1,4.8-4.1,7.5-6.5c3.6,4.4,7.4,8.5,10.7,12.9c2.3,3,3.9,3,6.8,0.6c8.4-6.8,17-13.3,25.7-19.7
		c2.8-2.1,3.1-3.6,0.9-6.4c-3.4-4.3-6.3-8.9-9.6-13.7c2.7-1.9,5.2-3.7,8.1-5.7c3.5,5,6.9,9.6,10.2,14.4c1.3,1.9,2.3,2.9,4.7,1.3
		c10.5-7,21.1-13.8,32.1-20.9c-3.3-5.9-6.7-11.9-10.3-18.1c2.8-1.7,5.4-3.2,8.4-5c3.6,6,7.1,11.9,10.7,18.1
		c12.1-6.3,24.1-12.5,36.6-19.1c-2.8-6.2-5.6-12.3-8.7-19c2.9-1.4,5.8-2.7,8.9-4.2c3.1,6.4,6,12.5,9,18.9
		c12.7-5.3,25.3-10.5,38.2-15.9c-2.3-6.6-4.6-13-7.1-19.8c3-1.1,5.8-2.1,9.2-3.4c1.8,5,3.7,9.8,5.3,14.7c1.2,3.6,2.6,5.3,7,3.6
		c11.2-4,22.6-7.3,34.4-11.1c-1.3-4.8-2.2-9.9-4-14.5c-1.8-4.8-0.3-6.8,4.3-7.4c1.1-0.2,2.3-0.3,3.9-0.5c1.7,6.3,3.5,12.6,5.4,19.7
		c13.4-2.9,26.9-5.8,40.5-8.8c-0.8-4.8-1.5-9.4-2.4-13.9c-1.3-6.6-1.4-6.5,5.2-7.9c0.8-0.2,1.6-0.5,3.1-1c1.4,7.2,2.8,14.1,4.2,21.1
		c13.8-1.8,27.1-3.6,41-5.4c-0.7-6.9-1.3-13.8-2-21c3.1,0,6.2,0,9.9,0c0.7,6.4,1.4,13.1,2.2,20.3c11.1-0.6,22.1-1.2,33.8-1.8
		c4.1-20.4,8.1-41,12.5-62.6c3.3,16.8,6.5,32.5,9.6,48.2c0.2,1,0.5,1.9,0.7,2.9c0.8,3.7,0.5,8.5,2.8,10.8c2,2,6.8,1.2,10.4,1.4
		c7.4,0.4,14.9,0.7,22.9,1.1c0.7-6.8,1.4-13.6,2.1-20.3c3.3,0,6.1,0,9.4,0c-0.5,7.3-0.9,14.2-1.3,21.1c13.7,1.8,27,3.6,40.9,5.4
		C849.1,166.9,850.5,160,851.9,152.9z M313.8,1060.4c-5.1-7.9-9.9-15.5-15-22.9c-0.8-1.1-3.2-2.4-3.9-2c-8.5,4.5-16.8,9.3-26.4,14.7
		c13.4,18.6,26.4,36.7,39.5,54.6c0.6,0.8,3.3,0.7,4.5,0c2.4-1.4,4.3-3.7,6.6-5.2c1.4-0.9,3.4-1.7,5.1-1.6c9,0.7,10.5-0.6,11-10
		c0.3-5.5,0.5-11.1,3.8-16.1c8.1,8.3,8.4,9.3,3.8,18.9c-1.2,2.5-2.5,5.1-4.2,7.3c-5.6,7.3-7.7,15.7-8.7,24.6
		c-0.4,4-0.8,7.9-1.3,12.9c-5.6-6.5-10.5-12.1-15.3-17.8c-54.2-65.4-92.1-139.2-112.7-221.6c-5.7-22.7-9.8-46-13.3-69.2
		c-2.6-16.9-2.9-34.1-4.3-51.1c-0.1-1.2-0.9-3.3-1.7-3.5c-5.2-1.2-10.5-2.1-16.2-3.1c0,2.6-0.1,4.3,0,5.9
		c1.3,16.7,1.8,33.5,4.1,50.1c3.3,23.6,7.2,47.1,12.4,70.3c6.8,30.2,16.9,59.5,29.1,88c28.9,67.9,69,128.4,120.3,181.5
		c4.7,4.9,8.7,10.6,13.8,15.1c8,7.2,16.7,13.6,24.9,20.6c34.7,29.7,72.3,55,112.9,76c46.6,24,95.5,41.8,147,52
		c15.7,3.1,31.6,5.6,47.5,7.8c12,1.7,24,3,36.1,3.8c7.9,0.6,15.8,0.1,24.1,0.1c-1-4.7-2.2-9.5-2.9-14.4c-0.4-2.9-2-3.3-4.4-3.5
		c-19.3-1.6-38.7-2.9-58-5c-29.1-3.3-57.7-9.9-85.7-18.4c-50.3-15.4-97.8-37-142-65.7c-10.5-6.8-20.7-14-31.1-21
		c0.3-0.6,0.6-1.3,0.9-1.9c2.4,0.8,5,1.3,7.1,2.6c10.6,6.9,21,14,31.5,21c2,1.3,3.9,2.9,5.7-0.4c4.6-8.1,9.2-16.1,13.7-23.8
		c-17.8-12.5-35.3-24.8-52.9-37.2c-2.6,2.9-5.3,6-8.6,9.7c-0.7-3.2-1.6-5.5-1.7-7.9c-0.2-5.7,2.9-9.4,7.9-11.6
		c4.5-2,8.6-4.3,13.7,0.1c7,6.1,14.7,11.4,22.2,16.7c54.9,38.6,114.9,65.8,180.3,80.6c21.4,4.8,43.4,7.7,65.1,11
		c8.3,1.3,16.7,1.3,25.7,1.9c-2.8-14.6-5.5-28.5-8.2-42.3c3.3-1.9,4.1-0.4,4.7,2.5c4.6,23.9,9.3,47.7,14,71.6
		c4,20.3,8,40.6,12.1,60.8c1,5,2.3,10,3.4,15c0.4-0.1,0.9-0.1,1.3-0.2c0-2.5,0-4.9,0-7.4c0-48.3,0.1-96.7-0.1-145
		c0-5.1-0.1-9.2,6.1-11c5-1.5,4.6-6.6,3.9-10.6c-0.7-4.1-4.1-4.7-7.7-4.6c-0.6,0-1.2-0.2-2.3-0.4c0-8.4,0-16.7,0-25.1
		c-3.5-0.2-6.5-0.3-10.4-0.5c1.3-0.9,1.8-1.4,2.3-1.6c1.8-0.8,3.7-1.5,5.6-2.2c15.6-5.3,30.6-1.9,45.4,3.2c1.1,0.4,2.2,3.2,1.9,4.6
		c-4.7,24-9.6,48-14.4,71.9c-1.4,6.9-2.6,13.8-4,20.8c103.8-4,243.2-45.9,353-164.8c84.7-91.8,130-200.5,138-326
		c-8.2,1.6-15.4,2.9-22.6,4.4c-21.3,4.3-42.6,8.7-63.9,12.8c-2.6,0.5-3.4,1.4-3.9,4c-2.8,16.5-5.3,33.1-8.9,49.4
		c-7.9,35.7-21.5,69.4-39,101.4c-30.3,55.2-71.1,101.2-121.7,138.5c-1.1,0.8-3.2,2-3.8,1.6c-5.8-3.8-10.6-1.6-15.6,2.1
		c-0.6-4.3,1.1-6.7,4.3-8.9c83.7-60,139.3-139.2,163.8-239.7c5-20.7,8.3-41.7,9.8-62.9c1.9-26.3,2.1-52.6-2.4-78.7
		c-3.5-20.4-6.5-41.1-12.3-60.9c-31-105.9-95.6-185.8-190.3-241.6c-33.7-19.8-69.8-34-107.8-43.3c-11.1-2.7-22.2-5-33.3-7.4
		c0-4.2,0-8.2,0-12.3c1.4,0,2.6-0.2,3.7,0c32.4,5.9,64,14.4,94.5,27.3c24.1,10.2,47.1,22.2,69.1,36.4c37.5,24.2,70.5,53.6,98.7,88.2
		c51.1,62.8,81.8,134.4,91.3,214.9c0.3,2.6,1,3.6,3.8,4.1c21.4,4.1,42.8,8.5,64.1,12.7c7.2,1.4,14.4,2.8,22.7,4.4
		c-9.4-140.3-63.8-258.8-166.3-354c-91.1-84.6-199.9-129.4-324.8-137.2c0.7,4.6,1.2,8.5,2,12.3c3.1,15.6,6.3,31.1,9.4,46.7
		c0.6,3.3,0.2,3.6-3.5,3.5c-11.2-56.6-22.5-113.3-33.7-169.9c-0.5,0.1-1,0.1-1.6,0.2c0,2.4,0,4.9,0,7.3c0,58,0,116-0.1,174
		c0,2.2-0.8,5.1-2.3,6.4c-8.3,6.9-15.7,14.6-20.7,24.1c-2.8,5.3-6.7,7-12.2,7.3c-34.8,2.5-68.6,9.8-101.6,21.1
		c-164.5,56.4-283.2,211.3-278.9,395.9c0,1.1-0.2,2.1-0.3,4c-5.9-5-11.2-9.5-15.4-13.1c1.1-2.4,2.3-3.9,2.4-5.4c0.5-6,0.7-12,1-17.9
		c0.3-6.1,0.6-12.2,0.9-18.4c-1.1,0-2-0.1-2.7,0c-12.2,2.5-24.4,5-36.5,7.4c-3.1,0.6-6.2,1.4-8.3-2.3c0.6-0.4,1.2-0.9,1.8-1
		c14.3-2.8,28.5-5.6,42.9-8.2c2.8-0.5,3.7-1.5,4.2-4.3c2.9-17.2,5.1-34.5,9.3-51.4c36.9-149.1,153.5-264.2,300-304.6
		c22.8-6.3,46.3-10,70.6-15.1c6.2-31.5,12.7-64.4,19.4-98.4c-152.2,10.9-277.4,73.2-374.2,189.9c-72.2,87.1-110.2,188.2-116.9,301.7
		c11.3-2.2,21.5-4.3,31.6-6.3c1.5,3.8-0.6,4.4-3.2,4.9c-37.1,7.3-74.1,14.7-111.2,22c-8.2,1.6-16.4,3.4-24.6,5
		c0,0.4,0.1,0.7,0.1,1.1c3.1,0,6.3,0,9.4,0c48.2,0,96.3,0,144.5,0.1c2.2,0,5.2,0.7,6.6,2.2c16.8,17.4,33.3,35,49.8,52.6
		c1.5,1.6,2.5,3.9,3,6.1c2.1,9.9,3.6,19.9,5.8,29.8c9.8,43,26.7,83,49.9,120.5c1.7,2.7,1.6,4.7,0.2,7.3c-1.8,3.1-3.1,6.4-4.6,9.8
		c-0.2-0.3-0.8-0.9-1.2-1.6c-35.5-54.3-57.1-113.7-64.8-178.1c-0.4-3.1-1.4-4.2-4.4-4.8c-23-4.5-46-9.2-69-13.8
		c-5.7-1.1-11.5-2.1-17.6-3.2c0,3.3-0.3,6,0,8.6c2.2,18.1,4.1,36.2,6.9,54.2c5.2,33.6,14.8,66.2,27.1,97.9
		c13.1,33.9,29.7,65.9,49.5,96.3c0.8,1.2,1.4,3.1,1.1,4.5C316.6,1049.4,315.2,1054.5,313.8,1060.4z M1336.7,742.3
		c-7.7-174.6-75.1-319.9-207.6-433.3c-104.7-89.6-227.2-134.6-365.6-139.2c1.1,5.4,2.4,9.9,3,14.5c0.4,3.3,1.8,4.3,5.1,4.5
		c14.1,0.8,28.2,1.5,42.2,3.1c16.3,1.9,32.7,4.1,48.7,7.5c17.6,3.7,34.9,8.6,52.2,13.4c30.1,8.4,58.9,20.2,86.8,34.1
		c30.2,15,59,32.4,86.1,52.6c23.4,17.5,45.4,36.5,66,57.2c24.1,24.3,45.8,50.6,65.2,78.7c16.2,23.5,30.5,48.3,42.9,74.1
		c12.6,26.2,23.8,52.9,31.3,81c5.9,22.1,11.3,44.3,15.7,66.7c3.4,17.3,5,34.9,7.1,52.4c1.1,8.9,1.3,17.9,2.1,26.8
		c0.1,1.1,1.4,2.8,2.3,3C1325.2,740.4,1330.3,741.2,1336.7,742.3z M1336.3,769.3c-6,1-11.2,1.7-16.3,2.9c-0.9,0.2-1.9,2.1-2.1,3.3
		c-1.4,15.3-2.5,30.6-4.1,45.8c-1.4,13-2.4,26.1-5.3,38.8c-5.4,23.7-11.1,47.5-18.2,70.7c-14.3,46.3-35.3,89.7-61.4,130.5
		c-34.6,54-77.1,100.9-127.4,140.6c-44.4,35.1-93.1,62.6-145.8,83.2c-25.5,10-51.6,18.1-78.5,23.8c-17.6,3.7-35.4,7.4-53.2,9.7
		c-17.7,2.3-35.7,2.9-53.6,4.3c-1.1,0.1-3.1,0.7-3.2,1.5c-1.3,5.5-2.2,11.1-3.5,17.5c166.5-6.8,307.2-69.3,419.3-191.4
		C1281.4,1043.4,1331.2,915.4,1336.3,769.3z M737.3,169.5c-170.8,7.4-313.8,72.4-426.6,199.7c-93.9,105.9-141.2,231.1-146.2,373.2
		c6.1-1.1,11.2-1.9,16.1-3.1c1-0.2,2.1-2,2.2-3.1c0.8-9.1,1.1-18.3,2.1-27.3c1.8-17.1,3.2-34.4,6.2-51.3
		c5.3-29.5,12.7-58.5,22.5-86.9C237.3,501.9,273,440,320.4,385.1c51.7-60,113.5-107.2,185-141.5c38.2-18.3,78-32.2,119.3-41.6
		c32.2-7.3,64.9-11.9,97.9-13.1c10.2-0.4,10.2-0.2,12.5-10C735.8,176.2,736.4,173.5,737.3,169.5z M1179.1,795.8
		c65.7-13,130.9-26,196.2-39c0-0.3-0.1-0.6-0.1-0.9c-64.7,0-129.3,0-194,0C1180.6,769.3,1179.9,782.2,1179.1,795.8z M1148.9,403.5
		c7.1-5.9,13.6-11.5,20.4-16.8c3.3-2.6,3.5-5.1,0.8-7.8c-14.4-14.4-28.8-28.8-43.2-43.2c-2.6-2.6-4.8-2-7,0.7
		c-4.6,5.8-9.3,11.6-14.3,17.2c-2.6,2.9-1.9,4.7,0.5,7.1c9.6,9.2,19.2,18.3,28.7,27.7C1139.5,393,1144,398.1,1148.9,403.5z
		 M1232.2,462.5c-0.4-0.5-0.8-0.9-1.2-1.4c-0.5-1-0.9-2.2-1.5-3.1c-8.2-12.2-16.3-24.5-24.7-36.6c-3.5-5-7.4-9.7-11.3-14.5
		c-1.4-1.7-2.8-3.2-5.3-1.1c-6,5.2-12.1,10.3-18.2,15.3c-2.7,2.2-2.6,4.3-0.6,7.1c10.9,15.3,21.7,30.7,32.4,46.2
		c1.7,2.5,3.1,2.8,5.6,1.3c7.1-4.1,14.3-8.1,21.5-12.1C1230,463.3,1231.1,463,1232.2,462.5z M1101.5,315.2c-1.2-1.3-2-2.5-3.2-3.3
		c-16.7-11.8-33.4-23.6-50.2-35.3c-2.3-1.6-4.5-1.6-6.1,1.4c-3.8,6.9-7.7,13.8-11.8,20.6c-1.7,2.8-1.4,4.1,1.5,5.8
		c5.3,3.1,10.3,6.5,15.3,10.1c10.8,7.6,21.4,15.5,32.2,23.1c1,0.7,3.7,0.7,4.4-0.1c5.4-6.1,10.5-12.4,15.6-18.6
		C1100,317.7,1100.6,316.6,1101.5,315.2z M1274.9,550.2c0-1,0.2-1.6,0-2c-9.1-19.6-18.2-39.2-27.3-58.8c-1.2-2.7-2.9-3.2-5.5-1.6
		c-6.4,3.7-12.7,7.5-19.3,10.8c-4.2,2.1-4.4,4.5-2.4,8.2c3.3,6.1,6.5,12.1,9.4,18.4c5.4,11.7,10.6,23.6,16,35.5
		C1255.4,557.2,1265,553.7,1274.9,550.2z M1020.8,259.9c-21.7-10.1-42.9-20-64.3-30c-3.7,9.9-7.2,18.7-10.3,27.6c-0.4,1,1,3.5,2.1,4
		c17.3,8.3,34.7,16.4,52,24.5c2.1,1,4.2,1.9,5.9-1.1C1010.8,277,1015.5,269.1,1020.8,259.9z M1004.5,1224.1
		c-20,9.4-39.2,18.3-58.8,27.5c3.5,9.5,7,19,11.1,29.9c21.6-10.1,42.4-19.9,63.7-29.9C1014.7,1241.7,1009.6,1232.9,1004.5,1224.1z
		 M930,221.8c-0.3-0.4-0.4-0.6-0.5-0.6c-21.3-5.8-42.5-11.6-63.8-17.3c-2.9-0.8-4.2,0.9-4.7,3.5c-1.3,7.6-2.7,15.2-3.9,22.7
		c-0.4,2.4-0.3,4.2,3.2,4.9c7.9,1.5,15.6,3.5,23.3,5.6c11.9,3.2,23.8,6.7,35.9,10.1C923,241,926.5,231.3,930,221.8z M1272.1,649.7
		c9.4-1.7,18.4-3.4,27.4-4.8c2.4-0.4,3.8-0.9,3-3.7c-5.6-20.3-11.2-40.6-16.5-61c-0.9-3.5-2.4-3.8-5.2-2.8c-7,2.6-14.1,5.1-21.2,7.5
		c-3.6,1.2-4.2,2.8-3,6.6c3.6,11.2,6.5,22.7,9.5,34C1268.3,633.6,1270.2,641.7,1272.1,649.7z M862.2,1309.2
		c22.9-6.1,45.1-12,67.9-18.1c-3.9-10.9-7.4-20.5-10.8-29.8c-21,5.6-41.6,11.1-62.6,16.7C858.5,1287.6,860.2,1297.5,862.2,1309.2z
		 M1272.7,862c-0.3,0.6-0.7,1-0.8,1.5c-5.3,19.6-10.6,39.1-15.7,58.8c-0.2,0.9,1.1,3,2.2,3.4c7.2,2.9,14.6,5.3,21.8,8.1
		c3.3,1.3,5.6,1.4,6.2-3c0.3-2.4,1.4-4.7,2.1-7c5-18.5,10.1-37,15.3-56.1C1292.6,865.6,1282.6,863.8,1272.7,862z M1218.3,1009.8
		c9.3,5.4,18,10.4,27.7,16c10.1-21.6,19.9-42.7,29.8-63.9c-9.8-3.5-18.2-6.3-26.5-9.5c-3.3-1.3-4.3-0.1-5.5,2.6
		c-4.8,11.1-9.6,22.2-14.7,33.1C1225.9,995.3,1222.1,1002.3,1218.3,1009.8z M418.8,338.7c17.8-12.5,35.3-24.7,53.1-37.2
		c-4.5-7.8-9-15.9-13.9-23.8c-0.6-1-3.7-1.6-4.7-0.9c-17.2,11.9-34.3,24-51.4,36c-2.5,1.7-2.3,3.2-0.5,5.2
		C407.2,324.8,412.9,331.7,418.8,338.7z M480.8,1250.9c20.9,11.3,41.6,21.4,63.7,29.5c3.7-10.1,7.1-19.5,10.4-28.7
		c-19.7-9.2-39.1-18.2-58.7-27.4C491.2,1232.8,486.2,1241.6,480.8,1250.9z M224.9,549.5c9.7,3.5,18,6.4,26.1,9.6
		c3.2,1.3,4.5,0.7,5.9-2.5c7.3-16.2,14.8-32.2,22.3-48.3c3.1-6.5,3.2-6.5-3.2-10.2c-6.8-3.9-13.7-7.8-21.4-12.2
		C244.6,507.4,234.9,528.2,224.9,549.5z M1124,1179.1c15.9-16.3,31.4-32.1,46.8-48.1c0.6-0.7,0.4-3.3-0.3-4
		c-7.1-6.2-14.3-12.2-21.7-18.4c-2.4,2.7-4.4,5.1-6.6,7.3c-12,11.9-24.2,23.7-36.1,35.7c-1,1-1.8,3.9-1.1,4.7
		C1110.8,1163.7,1117,1170.8,1124,1179.1z M254.6,1025.7c9.4-5.4,17.8-10.1,26.1-15.2c0.7-0.4,0.6-3,0.1-4.1
		c-8-17.4-16.1-34.8-24.4-52.1c-0.5-1.1-2.9-2.5-3.9-2.2c-8.9,3-17.6,6.3-27.6,9.9C234.8,983.3,244.6,1004.2,254.6,1025.7z
		 M1232,1050c-9.2-5.3-17.2-9.8-25.2-14.6c-2.4-1.4-3.4-0.2-4.7,1.6c-10.9,15.7-22,31.3-32.9,47c-0.7,1.1-0.6,4,0.3,4.8
		c6.9,6.2,14,12.1,22,18.9C1205.2,1088.4,1218.4,1069.4,1232,1050z M1028.9,1210.1c4.3,7.5,8.8,15,12.9,22.7
		c1.8,3.4,3.5,3.7,6.6,1.7c9.6-6.5,19.4-12.7,28.8-19.4c8.2-5.8,16.1-12,24.6-18.4c-7-8.4-13.5-16.2-19.8-23.8
		C1064,1185.5,1046.6,1197.7,1028.9,1210.1z M269.3,461.8c7.4,4.2,14.1,8.1,20.9,11.9c6.5,3.7,6.3,3.6,10.7-2.6
		c10-14.3,20.2-28.5,30.1-42.8c0.9-1.3,1.8-4.4,1.1-4.9c-7.2-6.5-14.8-12.6-22.7-19.3c-9.6,13.5-18.9,26.2-27.9,39.1
		C277.2,449,273.6,455.1,269.3,461.8z M215.3,935.5c9.6-3.5,17.7-6.8,26-9.4c3.4-1.1,3.9-2.3,2.9-5.7c-4-13.8-7.8-27.6-11.5-41.5
		c-1.4-5.4-2.7-10.8-4.1-16.7c-10.5,1.8-20.5,3.6-31.5,5.5C203.3,890.6,209.2,912.7,215.3,935.5z M376.7,332.4
		c-16,16.3-31.5,32.1-46.9,48.1c-0.7,0.7-0.6,3.2,0,3.8c7.2,6.3,14.6,12.3,21.4,18.1c15-14.6,29.6-28.8,44.1-43.1
		c0.8-0.8,1.3-3,0.8-3.6C390.1,348.2,383.9,340.9,376.7,332.4z M228.6,649.3c0.6-2.1,0.9-3.4,1.3-4.6c4.2-16,8.2-32,12.6-47.9
		c2.6-9.6,2.9-9.6-6.3-13.1c-6.5-2.5-13.2-4.8-20.8-7.5c-6.1,23-12.1,45.2-18.1,67.8C208.4,645.9,218.3,647.6,228.6,649.3z
		 M480.6,260.3c4.9,8.5,9.4,15.9,13.5,23.5c1.8,3.3,3.5,3.6,6.6,2c10.9-5.5,21.9-11,33-16.2c7-3.3,14.1-6.1,21.3-9.2
		c-3.2-8.8-6.4-16.9-9.1-25.3c-1.2-3.6-2.9-3.8-5.9-2.4c-5.7,2.6-11.7,4.7-17.3,7.4C508.9,246.5,495.1,253.3,480.6,260.3z
		 M570.7,220.7c3.9,10.8,7.4,20.3,10.7,29.3c20.3-5.1,40.1-10.1,59.8-15.2c1-0.3,2.6-2,2.4-2.8c-1.5-9.4-3.4-18.7-5.4-29.3
		C615.5,208.7,593.3,214.6,570.7,220.7z M570.7,1290.9c22.9,6.1,45.1,12,67.7,18c2-11.4,3.8-21.4,5.5-30.8
		c-21.2-5.7-41.7-11.2-62.4-16.7C578.1,1270.7,574.6,1280.2,570.7,1290.9z M1308.4,839.9c2-22.3,3.9-44,5.8-65.8
		c-1.6-0.1-2.3-0.3-2.9-0.2c-9,1.7-18,3.3-27,5.3c-1.1,0.2-2.2,2.5-2.4,4c-0.8,7.4-1.2,14.8-1.9,22.3c-0.9,9.5-1.9,19-2.9,29
		C1287.1,836.1,1297,837.9,1308.4,839.9z M774.2,223.2c17.3,1.9,34.1,3.7,50.9,5.6c2.6,0.3,4.2-0.6,4.6-3.1c1.1-6,2.2-12,3.1-18
		c0.5-3,0.8-6.1,1.2-9.6c-22-2.7-43.4-5.6-65.8-5.3C770.4,203.5,772.3,213.3,774.2,223.2z M1277.2,677.1c1.8,18.5,3.6,36.4,5.5,54.7
		c9.9,1.9,20.1,3.9,31.5,6.2c-2-22.7-3.8-44.4-5.8-66.5C1297.2,673.5,1287.2,675.3,1277.2,677.1z M192.5,671.9c-2,22-4,43.8-6,66.3
		c11.7-2.4,22-4.4,31.4-6.3c1.9-17.9,3.8-34.8,5.5-51.8c0.1-1-1.4-2.9-2.5-3.1C211.9,675.2,202.8,673.7,192.5,671.9z M828.7,1282.8
		c-2.4,0.1-4.4,0.1-6.4,0.3c-12.9,1.3-25.7,2.8-38.6,3.7c-9.5,0.7-9.5,0.4-10.9,9.8c-0.3,2.1-1,4.2-1.4,6.3
		c-1,5.1-1.9,10.2-2.9,15.2c0.9,0.4,1.2,0.7,1.5,0.7c20.5-1.7,41-3.4,61.5-5.2c0.8-0.1,2.3-2.1,2.1-3
		C832.2,1301.4,830.5,1292.2,828.7,1282.8z M726.5,1288.2c-17.3-1.8-34.3-3.6-51.3-5.5c-3.3-0.4-3.9,1.6-4.3,4.1
		c-0.6,3.6-1.2,7.2-1.8,10.8c-0.8,5.1-1.6,10.3-2.5,16.2c22.3,2,43.7,3.9,66,5.9C730.4,1308.3,728.5,1298.4,726.5,1288.2z
		 M671.9,228.7c16.5-1.5,32-3.4,47.5-4.2c6-0.3,7.7-2.8,8.5-7.9c1.2-7.8,2.8-15.4,4.4-23.4c-1.5-0.1-2.3-0.3-3.1-0.2
		c-19.8,1.7-39.7,3.3-59.5,5.2c-1,0.1-2.3,2.2-2.6,3.6c-0.3,1.3,0.5,2.9,0.8,4.3C669.2,213.5,670.6,221.1,671.9,228.7z M192.5,839.6
		c10.6-1.8,20-3.3,29.4-5c0.7-0.1,1.6-2.2,1.5-3.4c-0.3-4-1.1-7.9-1.4-11.8c-1.2-13-2.4-26.1-3.6-39.5c-10.1-2-20.4-4.1-31.8-6.3
		C188.5,795.8,190.4,817.2,192.5,839.6z"/>
	<path d="M85.5,780.8c-7.9,3.4-15.8,6.7-23.6,10.1c-15,6.3-29.9,12.5-44.8,19.1c-3.4,1.5-6.2,4.2-9.4,6.5c0-9.8,0-20.4,0-32.5
		c0.7,1.9,1,2.4,1.1,3.1c0.6,4,2.7,5.6,6.6,4.1c10-4,19.9-8.1,29.9-12.2c4.4-1.8,8.7-3.7,13.1-6.8c-5.4-2.2-11.3-3.6-16.2-6.6
		c-9.1-5.6-17.3-3.9-25.9,0.8c-4.3,2.3-8.1,4.8-7.9,10.9c-0.4-0.2-0.9-0.5-1.3-0.7c0-11.8,0-23.5,0-36.7c0.8,2.8,0.7,4.8,1.7,5.8
		c1.3,1.3,3.7,2.9,5,2.4c13.6-5.1,27-10.6,40.5-16c0.5-0.2,0.9-0.8,2-1.7c-9.8-3.6-19.1-6.9-28.3-10.3c-3.1-1.1-6.2-2.3-9.4-3.3
		c-6.5-2.2-8.5-1.1-12.1,7.5c0-7.3,0-13.5,0-18.5c3.2,2,6.6,4.8,10.5,6.2c21.3,8,42.8,15.7,64.2,23.5c1.3,0.5,2.6,1.2,5.3,2.5
		c-17.4,7.1-33.6,13.7-49.8,20.2c0,0.4,0,0.8,0,1.3c16.3,6.7,32.7,13.3,49,20C85.5,779.7,85.5,780.3,85.5,780.8z"/>
	<path d="M1417.5,721.7c2.9,9.3,4,10,13.6,10.2c16.6,0.2,33.3,0.7,49.9,0.9c10.1,0.1,11-0.7,13-10.6c0,21.1,0,42.1,0,63.4
		c-8,0-15.3,0-22.7,0c6.4-3.1,14.5-4.3,16.5-12.5c1.7-7,2-14.3,3-22.1c-11.5,0-21.9,0-32.6,0c-1.1,12.4,8.3,14.6,17.1,17.6
		c-12.9,0-25.9,0-38.8,0c-0.2-0.4-0.4-0.7-0.6-1.1c9.4-2.1,19.2-3.8,18.4-17.4c-9.6,0-19.2-0.2-28.8,0.2c-1.5,0.1-4.1,2.6-4.2,4.2
		c-0.6,7.2-1.2,14.6,2.2,21.5c2.7,5.6,7.1,9.1,12.5,11.6c1.6,0.7,3.2,1.4,4.5,3.3c-7.8-1.2-15.5-2.5-22.9-3.7
		C1417.5,764.9,1417.5,743.3,1417.5,721.7z"/>
	<path d="M775.8,58c0-12.2,0.2-24.5-0.1-36.7c-0.1-4.4-2.9-7.3-7.8-7.5c-0.9,0-1.8-0.5-2.6-1.5c8.1,0,16.2,0,24.4,0
		c0,0.3,0.1,0.5,0.1,0.8c-0.7,0.2-1.3,0.6-2,0.7c-6,1.2-7.9,3.3-7.9,9.5c-0.1,12.2-0.2,24.3-0.2,36.5c0,10.1,0,20.1,0,30.2
		c-0.6,0.2-1.1,0.4-1.7,0.5c-17.2-21.3-34.4-42.6-52.4-64.9c-0.3,2.5-0.5,3.7-0.5,5C725,44.4,725,58.3,725,72.1
		c0,11.3,1.2,12.9,11.7,16c-8.7,0-17.5,0-26.2,0c10.1-3.3,11.3-4.9,11.3-15.8c0-15.5,0.1-31,0.1-46.5c0-6.8-2.4-10-9-12.3
		c-0.5-0.2-1-0.6-1.4-1.7c8.2,0,16.4-0.2,24.7,0.2c1.4,0,2.9,1.9,3.9,3.2C751.1,29,762,42.8,773,56.6c0.5,0.6,0.8,1.4,1.2,2.2
		C774.7,58.5,775.2,58.3,775.8,58z"/>
	<path d="M727.1,1502.5c0-9.3,0-17.1,0-25c0.2-0.1,0.4-0.2,0.7-0.2c0.4,0.9,0.8,1.8,1.1,2.8c3.2,12,15.7,19.9,26.4,16.9
		c4.5-1.3,7.8-4.1,8-8.4c0.1-3.2-1.6-7.5-4.1-9.4c-4.9-3.9-10.8-6.3-16.2-9.6c-4.5-2.7-9.2-5.3-13.4-8.5c-7.4-5.9-9.5-13.8-7-22.7
		c2.7-9.4,9.5-14.4,18.7-16.5c6.7-1.6,13.3-0.8,19.5,2c5.3,2.4,9.8,3.2,13.3-3.5c0.3,0.3,0.6,0.6,0.9,0.9c0,4.7,0,9.5,0,14.2
		c0,4.6,0,9.2,0,13.8c-0.3,0.1-0.7,0.2-1,0.2c-1.1-2.9-2-5.9-3.2-8.8c-4.3-10.4-13.4-16.2-24.6-15.9c-5.4,0.2-10.2,3.5-11.8,8.4
		c-1.6,5.2,0.5,9.5,4.4,12.3c4.9,3.6,10.7,6,15.8,9.4c5.8,3.9,12.5,7.5,16.6,12.9c9.8,12.8,0.8,31.3-15.3,33.1
		c-6.5,0.8-12.5-0.3-18.3-3.1C731.2,1494.8,730.9,1494.9,727.1,1502.5z"/>
	<path d="M604.4,556.8c0.5-3.4,0.9-6.1,1.3-8.9c0.8,0.1,1.6,0.2,2.4,0.2c0,39.4,0,78.9,0,119.2c10.1-5.6,18.5-9.8,22.5-21
		c10.9-30.6,23.2-60.8,35.1-91c2.5-6.4,7.7-11.1,12.8-15.2c40-32.1,80.1-64,120.3-95.9c2.7-2.1,4.6-4.3,2.5-8.7
		c-6,4.8-11.9,9.4-17.8,14.1c-38.2,30.8-76.4,61.7-114.7,92.5c-2.2,1.8-4.8,4.2-7.3,1c-2.3-3-0.2-5.3,2.5-7.4
		c44.9-36.1,89.7-72.3,134.6-108.4c2.5-2,4-4.3,3.7-7.6c-0.2-1.8,0-3.7,0-5.5c0-9-0.3-9-9.6-9.7c-15.1-1.1-27,5.4-37.9,14.7
		c-2.3,2-4.8,3.8-6.7,6c-11.3,13.5-27,17-43.1,17.1c-24.1,0-48.2-1.2-72.3-2.7c-19.9-1.2-36,5.8-49.6,19.9
		c-10.3,10.7-17.7,23.2-23.9,36.6c-0.5,1.2-1.1,2.4-2.4,3.4c0.7-2.5,1.3-5.1,2.1-7.6c10.2-31.1,27.4-57.1,55.8-74.7
		c14.4-8.9,30.5-12.6,46.9-15.6c19.1-3.5,37.3-9.3,49.6-25.8c6.4-8.7,12.7-17.5,18.1-26.9c15.7-27.5,40.1-40.7,70.6-44.3
		c3.8-0.4,7.6-0.9,12.7-1.5c0-7.2,0-14.5,0-21.9c0.7,0,1.4,0.1,2.2,0.1c0,43.6,0,87.2,0,130.8c0.4,0.3,0.9,0.5,1.3,0.8
		c4.1-3.1,8.3-6.2,12.3-9.4c12.7-10.2,25.5-20.4,37.9-30.9c4.2-3.5,7.3-0.5,11.9,0.4c-7.3,5.9-13.9,11.4-20.6,16.8
		c-13.6,11-27.3,21.9-40.7,33c-1.8,1.5-2.5,4.4-3.7,6.6c0.5,0.4,1,0.8,1.5,1.2c1.4-0.9,3-1.7,4.3-2.8c20.5-16.4,41.1-32.8,61.6-49.3
		c3-2.4,5.6-3.3,9.4-1.6c5.1,2.4,10.5,4.2,15.8,6c2.8,1,3.2,2.2,2.6,5.1c-5.3,23.8-5.8,47.6,4.6,70.3c4.3,9.4,10.5,17.9,16.1,27.2
		c-10.8,6-22.3,12.4-33.9,18.8c-25.7,14.2-51.5,28.5-77.2,42.8c-1.6,0.9-2.8,2.6-4.3,3.9c0.4,0.5,0.8,1.1,1.2,1.6
		c1.6-0.7,3.1-1.4,4.6-2.1c50.2-26.2,100.4-52.5,150.6-78.7c2.7-1.4,6.5-5.2,8.8-0.2c2.1,4.5-2.9,5.2-5.5,6.6
		c-51.5,27-103,54-154.6,80.8c-3.7,1.9-5.3,4-5.1,8.3c0.4,9.3,0.1,18.6,0.1,28.1c1.3-0.1,2.2,0.1,2.9-0.2
		c9.7-4.8,19.4-9.5,28.9-14.6c1.1-0.6,1.9-3.3,1.6-4.8c-1.2-7.4-2.9-14.6-4.3-22c-0.3-1.7-0.3-3.5,0.5-5.4
		c4.8,8.9,4.6,19.2,7.9,29.2c2.2-1,4.3-1.8,6.3-2.8c41-20.5,81.9-40.9,122.9-61.4c0.4-0.2,0.9-0.5,1.3-0.7c2.5-1.1,5.5-3.4,7.5,0
		c2.2,3.8-1.4,5.1-4,6.4c-42.7,21.3-85.4,42.7-128.2,64c-3.8,1.9-5.9,3.7-2.5,8.3c34.2-16.4,68.6-32.9,104-50
		c-1.1,2.1-1.6,3.2-2.2,4.2c-16.9,26.9-28.7,55.8-33.3,87.3c-7,47.5,5.1,89.4,38.4,124.4c9.4,9.8,20.1,18.4,30.5,27.8
		c-6.9,1.6-14.2,3.4-21.5,5c-23.1,5.3-46.2,10.6-69.3,15.8c-2.5,0.6-5.3,0.6-4.4,4.4c0.9,3.6,3.8,2.1,5.8,1.7
		c30.3-6.4,60.6-12.9,90.9-19.3c7.6-1.6,15.3-3,22.9-4.8c2.7-0.6,5.2-1.2,6.1,2.1c1.1,3.7-1.9,4.5-4.6,5.1
		c-12.8,2.7-25.6,5.4-38.5,8.1c-25.5,5.4-50.9,10.8-76.4,16.1c-2.7,0.6-4.2,1.4-3.5,4.6c1.5,7,2.6,14,4.3,20.9
		c0.2,1,2.7,2.4,3.9,2.2c23.4-3.7,46.8-7.6,70.3-11.3c21.8-3.5,43.6-6.9,65.4-10.4c7.5-1.2,15.1-2.4,22.6-3.6c0.5-0.1,1-0.3,1.5-0.3
		c2.9,0.1,7.1-1.8,7.6,3c0.5,4.2-3.5,4.3-6.3,4.7c-40.6,6.5-81.3,12.8-122,19.2c-40.5,6.5-80.9,13.1-121.4,19.6
		c-27.7,4.5-55.4,8.8-83.1,13.2c-0.6,0.1-1.3,0-2.1,0c3.9-9.6,12.7-9.6,20.7-10.9c13.4-2.1,26.8-4.2,40.5-6.4c0-7.6,0-15,0-22.9
		c-13.6,2.8-26.8,5.6-40.4,8.5c3.6-7.5,9.8-10,17-11.1c6.9-1.1,13.7-2.6,20.4-4.2c1.5-0.4,2.5-2.2,3.8-3.3c-0.4-0.6-0.7-1.2-1.1-1.8
		c-9.3,2-18.6,4.1-28.3,6.2c2.5-4.9,6.5-6.8,11.2-7.7c3.7-0.8,7.5-1.4,11.2-2.2c7.1-1.4,7.7-2.5,5.6-10c-20,4.7-40,9.4-60,14.1
		c-34.8,8.3-69.7,16.6-104.5,24.9c-3.4,0.8-7.2,1.4-5.3,7.2c44.7-10,89.3-20.1,134-30.1c-30.7,25.8-52.2,57.2-60.2,96.8
		c-7.8,38.9-2.7,76.7,11.9,114.7c-4.6-1.4-8.4-2.1-12-3.6c-16.6-6.6-30.6-17.4-44.2-28.7c-18.8-15.5-36.7-31.9-56-46.7
		c-21.8-16.7-45.6-30.4-71.4-40.4c-17.6-6.8-33-17.6-49.3-29c11.6-2.6,22.1-5,32.7-7.4c25.1-5.7,50.1-11.3,75.2-16.9
		c3.4-0.7,5.9-1.7,3.6-6.2c-12.1,2.9-24.2,5.7-36.2,8.6c-25.6,6.1-51.3,12.2-76.9,18.3c-1.7,0.4-3.7,0.4-5.3,0
		c-0.8-0.2-1.8-2.5-1.4-3.1c0.8-1.4,2.3-2.9,3.8-3.3c8.7-2.3,17.4-4.2,26.1-6.3c11.3-2.7,22.6-5.3,33.8-8.1c1.7-0.4,3.8-1.8,4.4-3.3
		c3.7-8.8,7.1-17.9,11-27.8c-2.3,0.4-3.8,0.6-5.3,1c-30.6,8.7-61.2,17.5-91.8,26.3c-0.6,0.2-1.3,0.8-1.8,0.6
		c-1.6-0.5-3.1-1.2-4.7-1.8c0.9-1.3,1.5-3.3,2.7-3.8c4.3-1.7,8.8-3,13.3-4.3c28.9-8.3,57.8-16.5,86.7-24.9c1.7-0.5,3.2-1.5,4.8-2.3
		c-0.2-0.5-0.4-1-0.6-1.6c-2,0.5-3.9,0.8-5.9,1.4c-28.3,8.4-56.7,16.6-85,25.3c-5.4,1.6-9.1,0.6-13.1-2.8
		c-14.6-12.6-18.8-28.9-16.9-47.2c0.7-6.5,2.8-12.9,4.1-19.4c0.8-3.9,3.1-6.3,6.5-8.3C496.1,749,544.2,720,592.4,691
		c2.3-1.4,5.4-2.3,3.8-6.8c-2.2,1.2-4.2,2.2-6.1,3.4C540,718.2,490,748.8,439.9,779.4c-1.3,0.8-2.5,2-3.8,2.2
		c-1.8,0.3-3.8-0.3-5.7-0.5c0.7-1.9,0.9-4.4,2.3-5.7c2.3-2.1,5.3-3.4,8-5.1c50.5-30.9,100.9-61.8,151.5-92.6c3.3-2,5-4.2,4.9-8.2
		c-0.2-9.7-0.1-19.3,0.1-29c0.1-3.7-1.3-4.9-4.9-5c-11.8-0.2-20.5,6-28.6,13.4c-3.4,3.1-6.6,6.7-8.9,10.7
		c-9.1,16.1-23.6,24.7-40.7,28.8c-15.3,3.6-30.9,6.5-46.5,8c-20.1,2-39.5,4.7-56.2,17.5c-16.1,12.4-28.6,27.8-39,45
		c-0.8,1.4-1.7,2.7-2.9,3.9c2-14.4,7.1-27.5,16.1-39c12.4-15.7,29.4-25.2,46.7-34.2c15.4-7.9,30.8-15.7,44.3-26.8
		c18.8-15.4,33.1-34.5,46.8-54.2c6.2-9,12.3-18.3,19.7-26.3c15.7-17.1,35.5-25.8,59-25.4C602.7,557.1,603.5,556.9,604.4,556.8z
		 M721.4,780.2c-2.1,0.7-3.5,1.2-4.9,1.6c-24.5,7.3-49.1,14.5-73.6,21.9c-1.6,0.5-3,1.7-4.5,2.6c0.3,0.6,0.5,1.2,0.8,1.7
		c1.5-0.3,3.1-0.5,4.6-0.9c34.3-9.8,68.6-19.6,102.9-29.4c1.3-0.4,2.6-0.9,3.8-0.7c1.1,0.2,2.7,1,3,1.9c0.2,0.8-0.8,2.3-1.7,3.1
		c-0.8,0.7-2.1,0.8-3.2,1.1c-35.5,10.3-71.1,20.6-106.6,30.9c-5.6,1.6-6.6,3.5-4.6,8.8c0.4,0,0.9,0,1.4-0.1
		c26-7.4,52.1-14.8,78.1-22.2c11.9-3.4,23.9-6.6,35.7-10.2c5-1.5,7-5.2,6.3-10.4s-4.6-6-8.7-6.2c-2-0.1-4.1,0.1-5.9,0.8
		c-3.1,1.2-5.3,0.4-7.5-1.8c-28.4-28.6-37.9-63.3-33.7-102.5c0.4-3.9,2.5-5.9,5.9-7.5c29.7-14.2,59.4-28.5,89.1-42.7
		c3.5-1.7,5.4-3.6,3.2-8c-32.1,16-64,31.9-96.2,48c0.9-7,4.5-10.2,9.9-12.8c27.6-13.4,55-27.2,82.4-41c1.8-0.9,4.4-2.5,4.5-3.9
		c0.4-10.9,0.2-21.8,0.2-33.7c-22.9,11.9-44.7,23.3-67,35c-0.3-5.7,0.8-9.5,6-11.4c3.6-1.3,6.9-3.3,10.3-5c16-8.3,32.1-16.5,48-25
		c1.3-0.7,1.9-2.7,2.8-4.1c-0.4-0.3-0.9-0.7-1.3-1c-2.5,1.3-5,2.5-7.4,3.9c-18.1,10.2-36.1,20.4-54.2,30.5c-1.5,0.9-4.5,1.7-5.2,1
		c-4.9-5.2-9.7-2.9-14.4-0.1c-7.7,4.6-15.2,9.5-22.8,14.3s-15.3,9.7-23.1,14.7c-2.2-3.7-4-7-5.9-10.2c-0.3,0.1-0.7,0.3-1,0.4
		c-1,7.1-2.1,14.3-3.3,22.4c2.5-1.3,4.1-1.9,5.6-2.8c17.1-10.5,34.2-21,51.4-31.4c2.5-1.5,5.6-4.8,8.1-0.9c2.6,4.1-2,5.1-4.4,6.6
		c-19.5,12-39,24-58.5,36c-2.7,1.6-5.1,3.3-3.2,8c16.9-10.1,33.7-20.1,49.8-29.7c-6.1,13.1-13.1,26.2-18.2,39.9
		c-9.6,25.8-12.1,52.2-2.4,78.8C697.9,754.2,707.9,767.9,721.4,780.2z M901.6,848.7c-1.9-8.7-3.6-16.8-5.6-24.7
		c-0.2-0.9-2.7-1.9-4-1.7c-4.2,0.6-8.4,1.7-12.6,2.5c-20.7,4.3-41.3,8.7-62,13.1c-1.3,0.3-3.3,1.7-3.4,2.7c-0.3,7.1-0.2,14.1-0.2,22
		C843.4,857.9,871.9,853.4,901.6,848.7z M547.5,869.3c16.3-4,31.3-7.6,46.3-11.4c1.2-0.3,2.9-1.7,2.9-2.6c0.2-9.1,0.1-18.2,0.1-27.8
		c-2.4,0.5-4,0.6-5.5,1.1c-8.4,2.4-16.8,5.1-25.3,7c-5.1,1.2-8,3.4-9.5,8.5c-2,6.6-5,12.9-7.5,19.4
		C548.4,865,548.2,866.6,547.5,869.3z M631.3,652.1c0.5,0.3,0.9,0.6,1.4,1c8.6-5.3,17.3-10.4,25.8-15.8c1.1-0.7,2-2.2,2.3-3.6
		c5.3-20.8,3.1-42.1,3.9-63.2c0-0.1-0.4-0.3-1.3-0.8C652.7,597.2,642,624.6,631.3,652.1z M801.5,800.8c-1.3,0.2-2.3,0.3-3.2,0.5
		c-38.6,10.3-77.1,20.6-115.7,31c-15.5,4.1-30.9,8.2-46.4,12.4c-1.3,0.4-2.4,1.6-3.5,2.4c0.3,0.4,0.6,0.9,1,1.3
		c1.8-0.3,3.5-0.5,5.3-0.9c52.7-12.5,105.3-25.1,157.9-37.6C802.7,808.5,803.4,807.2,801.5,800.8z M633.5,816.3
		c-8.3,2.4-16,4.6-23.6,7.1c-1,0.3-1.9,2.6-1.9,4c-0.2,7.6,0,15.3-0.1,22.9c-0.1,3.4,1.6,4.1,4.3,3.5c4.5-1,9-2.1,13.5-3.1
		c3.8-0.9,4.4-2.9,2.3-6.1c-1.8-2.8-3.7-5.5-5.2-8.4c-3.6-7.4-3.2-8.4,4.6-10.4C632,824.6,634.2,822.2,633.5,816.3z M814.5,831.5
		c26.6-5.6,53-11.2,79.3-16.7c0.5-3.8,0.5-6.8-4.3-5.7c-24.1,5.5-48.1,11.2-72.2,16.6C814.1,826.4,813.5,827.7,814.5,831.5z
		 M849,587.9c-1.3,0.6-2.6,1.2-3.9,1.8c-9.7,4.8-19.5,9.5-29.1,14.7c-1.5,0.8-1.9,3.7-2.7,5.7c0.5,0.3,0.9,0.7,1.4,1
		c1.5-0.6,3-1.1,4.4-1.8c9.1-4.4,18.1-9,27.3-13C850.9,594.3,852.1,592.1,849,587.9z M659.2,647.4c-0.6-0.5-1.1-1-1.7-1.4
		c-10.2,6.4-20.4,12.6-30.4,19.2c-1.4,0.9-1.9,3.3-2.8,5.1c0.4,0.3,0.8,0.6,1.1,0.9c1.7-0.9,3.4-1.8,5.1-2.8
		c8.7-5.2,17.4-10.3,25.9-15.7C657.9,651.6,658.3,649.1,659.2,647.4z M596.9,820.7c-3.9-3.7-31.9,4.6-34.4,9.9
		C574.6,827.1,585.7,823.9,596.9,820.7z M627.7,857.1c-6.2,1.4-11.8,2.6-17.3,4.1c-1.1,0.3-1.6,2.4-2.4,3.7c1.3,0.6,2.7,1.9,3.9,1.7
		c3.7-0.6,7.3-2.1,11.1-2.5C627.1,863.7,627.8,861.5,627.7,857.1z M635.2,807.6c-0.4-0.4-0.7-0.9-1.1-1.3
		c-8.8,2.5-17.8,4.3-26.2,8.2c0.3,0.9,0.6,1.8,0.8,2.8c8.1-2.4,16.3-4.7,24.4-7.2C634,809.8,634.5,808.4,635.2,807.6z M609.1,680.5
		c8.5-3.1,11-5.4,11.2-10.6C611.8,672.1,607.4,676.3,609.1,680.5z M814.2,817.6c5.2-4,5.1-9.4,0-12.8
		C814.2,809,814.2,813.2,814.2,817.6z"/>
	<path d="M445,1091.4c4.3-9.6,8.4-19.1,12.7-28.4c5.5-11.9,12.9-22.6,22.9-31.1c13.3-11.4,29.3-14.5,46.2-13.6
		c7.6,0.4,15.3,1.4,22.5,3.6c14.1,4.3,22.4,16.1,22.5,30.7c0,6.2-1,12.5-1.9,18.7c-0.2,1.2-1.9,2.2-2.8,3.4
		c-0.8-1.1-1.9-2.1-2.3-3.4c-3.7-11.2-17.9-21.2-29.7-20.4c-7.9,0.5-13.2,5.3-16.5,12.1c-3.9,7.8-3.9,15.7,1.1,23.2
		c7.3,11.1,22.5,17.6,36.4,14.1c11-2.8,21.9-6.7,32.2-11.5c19.7-9.3,38.7-19.9,58.3-29.3c12.5-6,25.8-8.9,39.7-5.8
		c17.1,3.7,28.8,14.5,37.3,29.2c0.7,1.2,0.5,3,0.6,4.5c-1.6-0.3-3.4-0.2-4.8-1c-5.8-3-11.2-7.6-17.4-9.2c-12.3-3.3-21.5,3.3-29,12.3
		c-3.2,3.8-5.7,8.2-8,12.6c-3.5,6.6-2.1,12.1,4.9,14.6c7.4,2.6,15.3,4.5,23.1,5c23.5,1.3,45.7-3.9,67.4-13.1
		c10.5-4.4,21.5-7.9,32.5-10.5c13.6-3.2,27.2-0.1,40.3,3.5c18.4,5.1,36.3,11.7,54.7,16.5c38.3,10,74.2,4.4,107-18.3
		c1.2-0.9,3.2-0.7,4.8-1.1c-0.3,1.6,0,3.6-0.9,4.8c-27.7,38.5-63.7,64.5-111,73.5c-31.3,5.9-61.9,2.7-92-6.6
		c-15.6-4.8-31.4-7.6-47.7-3.4c-8.2,2.1-15.7,5.8-21.2,12.5c-2.7,3.3-4.9,7.6-6,11.8c-1.8,6.8,0.3,11.3,7,13.2
		c7.3,2,15,2.3,22.5,3.5c1.8,0.3,3.5,1.1,5.2,1.7c-1.3,1.4-2.4,3.5-4,4.2c-20.7,8.7-42.3,13.5-64.6,15.3
		c-40.7,3.3-80.7-0.2-119.6-13.1c-16.3-5.4-31.5-13-45.8-22.7c-22.3-15.2-45.5-28.8-71.8-35.8c-10.2-2.7-20.6-4.3-31-1.4
		c-14.1,4-19,13.2-14.2,27.2c2.1,6.2,5.7,11.9,8.5,17.9c0.5,1.1,1.3,3,0.9,3.5c-0.8,0.9-2.6,1.6-3.8,1.4
		c-25.3-3.9-48.9-11.5-64.2-33.8c-13.5-19.6-14.6-41.2-6.9-63.4c0.9-2.6,2.8-4.9,4.3-7.3c5.4-8.6,9.8-17.5,8.5-28
		c-0.7-5.8-5.2-10.1-10.7-9.5c-2.5,0.3-6.3,2.1-7,4.1c-2.1,6.4-2.9,13.1-4.4,19.7c-0.4,1.7-1.3,3.3-2,4.9c-1.2-1.4-3.2-2.6-3.5-4.1
		c-1.7-9.1-4-18.2-4.2-27.4c-0.3-14.4,7.1-24.5,20.6-30c22.3-9.1,46.8-2.6,60.8,16.1c1.2,1.6,2.2,3.3,3.1,5.1
		C413.7,1069.7,430.3,1085.9,445,1091.4z"/>
	<path d="M1028.5,845c-12.4,11.9-24.8,23.1-36.3,35.1c-26,26.9-47.8,56.8-59.8,92.7c-16,47.9-9.8,92.7,20.1,133.7
		c0.9,1.2,1.9,2.3,2.8,3.5c0.8,1,1.7,2,3.4,4c-4.5,1.1-8.2,2.1-11.9,2.8c-26.8,5.4-52.6,0.3-77.8-8.5c-10.5-3.7-20.5-8.6-31-12.3
		c-11.4-4-23-7.5-34.6-10.5c-14.6-3.9-27.6-11.2-40.7-18.3c-9.5-5.1-18.9-10.6-28.1-16.1c-1.9-1.2-3.9-3.4-4.5-5.5
		c-8.8-27.7-14-56.1-13-85.3c0.9-23.6,5.1-46.5,15.8-67.9c1.5-2.9,3.2-4.5,6.7-4.9c21.7-3,43.3-6.4,65-9.6
		c24-3.6,47.9-7.2,71.9-10.7c25.9-3.8,51.9-7.5,77.9-11.3c23.8-3.5,47.6-7.2,71.4-10.8C1026.5,844.9,1027.4,845,1028.5,845z"/>
	<path d="M1147.7,859.6c-0.2,5.6-2.5,8.6-6.9,11.1c-80.6,45.9-131.8,114-153.8,204c-2.1,8.5-3.4,17.2-5,25.9
		c-0.6,3.4-9.2,9.7-12.4,8.7c-1-0.3-2-1.7-2.5-2.8c-8.4-17.5-14.3-35.7-17.1-54.9c-9.2-63.7,11.1-118.3,51.3-167
		c7-8.5,14.8-10.9,24.7-11.8c20.2-1.9,40.3-4.4,60.4-6.6c16.5-1.8,33-3.5,49.5-5.3C1139.8,860.4,1143.7,860,1147.7,859.6z"/>
	<path d="M783.7,1085.5c-13.7-5.4-27.5-10.3-41-16.3c-57.1-25.4-109.8-58.3-159.8-95.3c-19.3-14.3-39.8-24.9-63.3-30.1
		c-20.1-4.4-36.5-16-51.3-29.5c-29-26.5-57.5-53.6-85.9-80.8c-34.1-32.5-68-65.4-102-98c-1.3-1.2-2.9-2-4.4-3
		c0.4-0.4,0.8-0.9,1.2-1.3c8.9,7.4,17.8,14.8,26.6,22.3c39.4,33.1,78.8,66.2,118.1,99.3c19,16,37.9,32,56.6,48.3
		c16.9,14.7,36.6,24.6,56.8,33.7c11.9,5.4,24.5,9.7,35.9,16.1c12.5,7,24.4,15.4,35.9,24.1c22.5,16.9,43.8,35.4,66.9,51.3
		c17.7,12.1,37.4,21.4,56.5,31.4c16.2,8.5,32.8,16.1,49.2,24.1c1.5,0.7,2.9,1.5,4.4,2.3C784,1084.5,783.8,1085,783.7,1085.5z"/>
	<path d="M785.5,1091.9c-6.5,4.3-12.9,5.7-20.7,1.9c-11.8-5.8-24.1-10.2-36.1-15.7c-3.2-1.4-6.1-4.1-8.3-6.8
		c-12-14.6-27-22.7-46.2-22.6c-3.1,0-6.6-1-9.3-2.7c-26-16.7-51.8-33.9-77.8-50.5c-29.4-18.7-59.8-35.4-93.9-44
		c-11.4-2.9-23.2-4-34.8-5.7c-2.6-0.4-4.2-0.7-4.4-4c-0.6-12.2-1.6-24.4-2.3-34.7c10.4,8.3,22.3,18.2,34.6,27.5
		c13,9.9,27,17.9,42.8,22.8c33.4,10.4,62.7,28.5,90.5,49.6c10.2,7.7,20.5,15.5,31.5,22c10.4,6.1,21.7,10.7,32.7,15.7
		C717.6,1060.6,751.5,1076.2,785.5,1091.9z"/>
	<path d="M660.6,1050.3c-5.4,1.9-10.1,3.8-14.9,5.1c-1.6,0.4-4-0.3-5.5-1.2c-20.3-12.3-40.8-24.3-60.7-37.2
		c-22-14.3-45.2-25.9-70.7-32.2c-3.1-0.8-4.2-2.5-4.8-5.4c-0.9-5-2.3-9.9-3.4-14.6c11.1,1.2,52.9,18.2,82.2,36.1
		C608.8,1016.8,634.3,1033.5,660.6,1050.3z"/>
	<path d="M278.9,740.7c8.8,8.2,17.9,16.3,26.5,24.8c36.1,35.5,72.3,70.9,108.1,106.7c17.4,17.4,25.1,39.5,28.5,63.4
		c3.5,25.2-1.5,49.5-7.4,73.8c-4.8,20-6.7,40.4-0.7,60.6c1.4,4.7,3.5,9.1,5.8,14.7c-6.7-7.3-9.8-15.1-11.7-23.5
		c-4.1-18-2-35.6,2.3-53.3c5.3-22.1,8.1-44.5,6.5-67.2c-1.3-18.4-6.1-35.7-19.1-49.7c-33-35.7-66.1-71.3-99.2-106.9
		c-12.6-13.5-25.3-26.9-38-40.4c-0.7-0.8-1.4-1.6-2.1-2.4C278.6,741,278.7,740.8,278.9,740.7z"/>
	<path d="M635.5,1059.9c-5,2.5-9.5,5-14.1,7c-1,0.4-2.8-0.3-3.9-1.1c-16.2-11.5-33.2-22.3-48.4-35.1c-9-7.6-18-12.9-29.3-15.5
		c-13.8-3.2-27.4-7.3-40.8-10.9c1.1-3,2.4-7.2,4.3-11.2c0.5-1.1,3.2-1.9,4.5-1.6c22.1,5.6,42.4,15.1,61.6,27.2
		c21.1,13.2,42.3,26.2,63.5,39.3C633.6,1058.4,634.2,1059,635.5,1059.9z"/>
	<path d="M585.2,1086.4c-15.6,7.1-30,13.9-46.4,9.3c-12-3.3-19.5-13-18.8-23.7c0.2-2.6,1-5.2,2.1-7.6c3.7-7.7,7.2-9,15-5.6
		c5.3,2.4,10.5,4.8,15.7,7.4c4.1,2.1,8.6,3.5,9.6,9.2c0.2,1.3,3.3,3.4,4.5,3C574.9,1076,578.5,1083,585.2,1086.4z"/>
	<path d="M973.7,417.2c1.6,2.3,3.6,4.5,4.8,7c46.5,102.1,92.9,204.1,139.4,306.2c12.5,27.5,25.1,54.9,37.5,82.5
		c1.2,2.6,1.5,5.6,2.2,8.4c-0.5,0.2-1.1,0.4-1.6,0.6c-61.2-134.6-122.4-269.1-183.7-403.7C972.7,417.9,973.2,417.6,973.7,417.2z"/>
	<path d="M342.4,457c4.1-4.8,8.3-9.8,11.9-14c1.7,1.9,3,4.7,5.1,5.5c9.2,3.5,18.6,6.5,28.3,9.8c-3.9-16.8-14.4-25.7-26.9-22.6
		c4.7-5.5,9-10.6,13.1-15.5c0.7,1.7,0.9,4.1,1.9,4.5c9.4,3.8,19,7.2,28.5,10.8c0.3-0.4,0.6-0.8,0.9-1.2c-1.6-3.1-3.2-6.3-4.9-9.3
		c-2.4-4.5-4.9-9-7.4-13.4c-1.7-2.9-3.4-6-7.9-4.2c2-2.4,3.9-4.8,5.5-6.7c3,6.1,5.9,12.2,9.1,18.2c5.8,10.8,11.7,21.5,18.4,33.6
		c-12.4-4.3-23.4-8.1-35.9-12.5c6,12,11.2,22.6,17,34.3c-10.7-3.6-20.1-6.8-29.5-9.9c-6.6-2.2-13.2-4.4-19.8-6.4
		C347.4,457.2,345,457.3,342.4,457z"/>
	<path d="M1015.9,869c6-8,12.9-11.2,21.8-12.2c33.5-3.7,66.9-8,100.3-12.1c4.6-0.6,9.1-1.2,13.7-1.9c0,8.6-0.6,9.6-8.1,10.6
		c-20.3,2.6-40.5,4.9-60.8,7.4c-20.1,2.5-40.2,5.1-60.3,7.6C1020.6,868.8,1018.6,868.8,1015.9,869z"/>
	<path d="M936.8,331.7c7,15.8,14.1,31.6,21.1,47.4c-0.4,0.3-0.7,0.6-1.1,0.9c-1.4-1.6-3.2-3-4.1-4.9c-6.1-12.9-11.9-26-17.8-38.9
		c-0.8-1.8-1.7-3.5-2.9-6c-6.8,5.4-13.3,10.6-19.7,15.7c-2,1.6-3.9,3.1-5.8,4.7c-6,5-6,5-13.9,1.3c10.6-8.6,21-17,31.4-25.5
		c9.8-7.9,19.7-15.8,29.5-23.8c0.3-0.2,0.5-0.5,0.7-0.7c2.1-1.5,4.3-3.1,6.5-0.5c2.3,2.6,0.5,4.6-1.6,6.3
		c-5.8,4.8-11.4,9.7-17.5,14.1c-3.3,2.4-3.1,4.2-1.3,7.3c11.4,18.9,22.7,37.9,34,56.8c0.7,1.3,1.5,2.5,2.2,3.8
		c-0.4,0.3-0.7,0.6-1.1,0.9c-1.8-2-4-3.8-5.4-6c-10.2-16.7-20.3-33.6-30.4-50.3c-0.7-1.1-1.5-2.1-2.2-3.1
		C937.4,331.4,937.1,331.6,936.8,331.7z"/>
	<path d="M444,1079.1c-2.2-10.4-4.5-19.7-6.1-29c-3.6-21.6,1.3-42.7,5.2-63.7c3.7-19.7,5.5-39.5,1.8-59.4c-0.1-0.3,0.1-0.6,0.4-1.9
		c3.5,13.8,4.7,26.9,3.9,40.3c-1.1,17.9-2,35.8-2.3,53.8c-0.2,12.2,2.5,24.1,6.7,35.6c0.9,2.5,1,4.2-0.7,6.8
		C449.9,1066.5,447.6,1072,444,1079.1z"/>
	<path d="M1106,453.8c5.1-9.3,5.2-11-0.2-16.7c-4.6,4.1-9.5,8.1-13.8,12.6c-1,1-0.6,4.6,0.5,6c5.9,8.1,13.4,12.3,23.9,8.6
		c-3.9,2.6-7.9,5.3-12.3,8.3c-8.7-9.9-17.5-19.9-25.7-29.2c3.7-2.6,7.3-4.6,10.4-7.3c8.1-6.9,16.1-13.9,23.8-21.2
		c1.8-1.7,2.5-4.5,3.7-7c8,9.1,16.8,19.1,25.7,29.3c-3.7,3.2-7.1,6.3-10.6,9.3c7.3-11.1,0-18.1-7-25.6c-5.4,4.7-10.8,9.3-16.1,13.9
		c4.3,6.1,5.8,6.2,17.3,1.6C1118.5,442.8,1112.2,448.3,1106,453.8z"/>
	<path d="M1089.3,1078.6c-3.2-3.6-6.3-7.2-9.9-11.3c8.6-9.9,17.1-19.7,25.7-29.8c4.2,8.4,11.9,12.9,18.6,18.4
		c6.5,5.3,11.5,13.1,21,15.2c-8.1,9.3-16.5,19.1-25.2,29c-3.8-3.3-7.2-6.3-11.3-10c12.4,4.3,14.8,2.9,25-9.8
		c-5.3-4.6-10.6-9.2-15.9-13.7c-5.6,4.4-5,8.2-0.1,16.5c-6-5.2-12-10.4-18.1-15.6c5.8,1.7,11.3,3.4,15.8-3c-4.7-4.1-9.4-8-14-12
		c-2.3-1.9-4.1-1.2-6.1,0.7C1087.5,1060.4,1083.8,1068.4,1089.3,1078.6z"/>
	<path d="M1157,697.4c-51.2-85.6-102.3-171.3-153.5-256.9c0.5-0.3,0.9-0.7,1.4-1c2,2.3,4.3,4.4,5.8,7c28,46.7,55.9,93.4,83.8,140.2
		c20,33.5,40,66.9,59.9,100.5c1.8,3,2.7,6.4,4,9.7C1157.9,697,1157.5,697.2,1157,697.4z"/>
	<path d="M1045.5,412.6c-3.8-3.4-7.5-6.9-11.3-10.3c4.3,1.7,7.5,0.3,10.3-2.8c6.9-7.7,13.8-15.2,20.6-23c4.6-5.2,4.6-5.7,3.1-13.3
		c4.3,3.9,8.4,7,11.7,10.8c1.2,1.4,0.7,4.4,0.5,6.6c-0.6,11.2-1.3,22.4-1.1,33.9c6.3-8,16.5-12.9,18.2-24.8c2.7,2.4,5.5,4.8,8.2,7.2
		c-5.1-1.6-7.9,1.3-10.8,4.5c-9.3,10.4-18.6,20.8-29.1,30.9c0.9-18.2,1.9-36.3,2.9-55.4c-1.4,1.1-2.3,1.6-3,2.3
		c-6.3,6.9-12.6,13.7-18.7,20.7C1041.9,405.9,1042,406.2,1045.5,412.6z"/>
	<path d="M442,424.4c-1.9,1.7-4.5,4.1-6.3,5.7c-1.5-3.5-2.4-7.4-4.7-10.2c-6.5-8.2-13.7-15.9-20.5-23.7c-3.2-3.7-5-4.1-12.1-2.3
		c4.5-3.9,8.1-7.7,12.3-10.4c1.8-1.2,5.1-0.8,7.5-0.3c10.1,1.7,20.2,3.7,30.3,5.6c1,0.2,2,0,4.5,0c-6.6-7.2-12.3-13.7-18.5-19.7
		c-1.2-1.2-4.1-0.6-6.7-0.9c3.2-2.7,6.2-5.4,10.3-9c-2.3,5.3-1,8.5,2,11.7c8.9,9.8,17.6,20,26.3,30c0.6,0.7,1,1.5,1.9,2.9
		c-18.5-3.1-36.4-6.1-54.3-9.2c-0.3,0.3-0.5,0.7-0.8,1c3,3.6,5.9,7.2,8.9,10.7c3.6,4.1,7.1,8.4,11,12.2
		C435.6,420.8,438.7,422.3,442,424.4z"/>
	<path d="M1044.2,823.6c-3.2-2.8-75-289.1-72.2-292.7c24.5,97.5,49.1,194.9,73.6,292.4C1045.1,823.4,1044.7,823.5,1044.2,823.6z"/>
	<path d="M745.6,1110c-10.4,4.1-19.5,6.4-29.7,2c-12.5-5.3-25.4-9.6-38.1-14.4c-1.4-0.5-2.6-1.3-4.4-2.3c1.2-1.7,2.2-3.3,3.3-4.6
		c5.9-7.1,6.9-7.1,15.4-3.5c16.1,6.9,32.4,13.7,48.6,20.6C742,1108.4,743.3,1109,745.6,1110z"/>
	<path d="M1072.8,1073.8c3.9,4.1,7.8,8.2,11.2,11.8c-4.7-0.9-9.7-2.4-14.9-2.6c-6.3-0.3-11.9,4.9-12.3,10.1c-0.4,5.3,2.6,9,7.8,8.6
		c4.9-0.4,9.7-1.8,14.5-3.1c5.4-1.4,10.7-2.5,15.9,0.1c5.5,2.8,8.1,7.5,7.7,13.4c-0.4,7.4-5.2,11.9-11.7,14.8
		c-2.7,1.2-7.1,0.5-6.4,5.4c-3.4-3.1-6.5-6-8.4-7.7c4,0.1,9.2,1.1,14,0.1c2.8-0.5,5.9-3.6,7.5-6.3c2.9-4.8-0.2-9.8-5.7-9.5
		c-4.9,0.3-9.7,1.9-14.5,2.7c-3.9,0.7-7.9,1.9-11.7,1.6c-14-1.3-16.2-16-10.2-24.3c2.1-3,5.4-5.4,8.7-7.2
		C1070.4,1078.4,1070.6,1078.7,1072.8,1073.8z"/>
	<path d="M1237.1,831.6c-6.7-11.3-13.1-22.1-19.6-32.9c0.2-0.4,0.5-0.7,0.7-1.1c1.2,0.8,2.8,1.3,3.5,2.3c6.8,11.2,13.4,22.4,20,33.8
		c1.9,3.3,0.2,7.5-3.3,7.9c-20.3,2.6-40.6,4.9-60.9,7.3c-0.4,0.1-0.9-0.2-1.4-0.3c1.2-8.9,1.2-8.8,9.9-9.8c16.2-1.9,32.3-4,48.4-6.1
		C1235.2,832.6,1235.8,832.2,1237.1,831.6z"/>
	<path d="M613.2,1071.6c-6.8,3.6-13.2,7.2-19.7,10.4c-1,0.5-2.8,0-3.9-0.6c-3.8-2.4-7.3-5.2-11.1-7.5c-3.1-1.9-3.9-4.1-3.7-7.7
		c0.4-7.1,0.1-14.2,0.1-21.8C587.8,1053.4,600.3,1062.3,613.2,1071.6z"/>
	<path d="M402.6,1039.5c-4-3.1-8.1-6.3-12.3-9.4c-2.6-1.9-3.4-6.1-1.5-8.7c5.8-7.4,21.8-12.4,30.5-9.5c2.5,0.8,4,1.9,3.4,4.9
		c-0.9,5.1-1.4,10.2-2,14.2C414.2,1034.1,408.3,1036.8,402.6,1039.5z"/>
	<path d="M453.5,979.7c0-8.4,0-16.4,0-25.5c11.7,2,22.3,3.8,32.1,5.5c-2.8,6.3-5.2,12.1-7.9,17.7c-0.5,1.1-2.4,2.1-3.7,2.1
		C467.2,979.8,460.4,979.7,453.5,979.7z"/>
	<path d="M510.2,1015c-2.3,0.6-4.6,1.2-7,1.7c-10.6,2.4-19.8,7.4-27.6,14.9c-3.3,3.2-12.1,4.4-15.8,2.1c-0.9-0.6-1.5-2.2-1.7-3.4
		c-0.8-3.5-1.3-7.1-2-11.3C473.6,1011.6,491.7,1011.5,510.2,1015z"/>
	<path d="M452.4,985.9c7.4,0,13.6-0.1,19.7,0c2.9,0,4.7,0.8,5.2,4.5c0.7,5,2.5,9.9,3.9,15.2c-8.2,1.7-16.9,3.6-26.4,5.6
		C454,1003.5,453.3,995.5,452.4,985.9z"/>
	<path d="M432.1,943.8c-7.3,1.7-12.8,3-18,4.3c2.1-11.9,4.2-24.1,6.3-36.4c0.3-0.2,0.7-0.3,1-0.5C425,922,428.5,932.9,432.1,943.8z"
		/>
	<path d="M404.9,1045.1c1.8-1.1,3.4-2.5,5.2-2.9c9.7-2.6,10.8-2.4,11.8,7.2c0.9,8,2.3,15.9,3.5,24.3
		C416.2,1065.9,410.5,1055.7,404.9,1045.1z"/>
	<path d="M765.1,1101c-5.3,4.5-10.4,5.8-17,2.7c-8.6-4.1-17.7-7.3-26.2-10.7c2.6-1.8,5.1-3.6,8.3-5.9
		C741.2,1091.4,753.1,1096.2,765.1,1101z"/>
	<path d="M709.9,1117.7c-13.2,0.4-25.3,1.3-36.8-3.5c-6.2-2.6-7.7-6.1-4.8-10.6c0.6-0.9,2.3-1.8,3-1.6
		C683.9,1107.1,696.3,1112.2,709.9,1117.7z"/>
	<path d="M405.8,967c4.6-11.7,12.9-15.8,26.9-13.4c-0.6,7.6-1.2,15.3-1.9,23c-0.1,0.8-1.3,1.5-1.9,2.2c-0.7-0.8-1.6-1.5-1.9-2.4
		c-0.8-2-1.1-4.2-1.8-6.2C420.9,959.7,414.6,958.4,405.8,967z"/>
	<path d="M388.1,1014.2c-0.4-14.2,3.6-22,13-24.5c2,5.2,4,10.3,5.8,15C400.8,1007.8,394.5,1011,388.1,1014.2z"/>
	<path d="M907.4,357.5c5.8-4.6,10.8-8.6,15.8-12.5c0.2,0.2,0.5,0.3,0.7,0.5c-2.3,5.1-4.7,10.2-7.2,15.7
		C913.6,360,910.9,358.9,907.4,357.5z"/>
	<path d="M695.1,1079.9c9-0.1,16.1,4.1,22.1,10.9c-7.5-3.2-15-6.4-22.4-9.6C694.9,1080.8,695,1080.4,695.1,1079.9z"/>
	<path d="M413.5,1005.5c-2.3-5.8-4.7-11.6-7-17.3c0.4-0.2,0.8-0.4,1.2-0.6c2.1,2.8,3.8,5.9,6.3,8.2
		C417.7,999.2,414.5,1002.3,413.5,1005.5z"/>
	<path d="M419.8,1006.4c2-3.9,3.8-6.8,5.1-10c1.2-3.1,1.9-6.4,2.8-9.6c0.5,0.1,1.1,0.3,1.6,0.4c-1.7,6.2-3.2,12.4-5.1,18.6
		C424,1006.3,421.6,1006.2,419.8,1006.4z"/>
	<path d="M395.5,985.2c2.7-4.9,5-9.3,7.9-14.6C400.6,985.3,403.4,983.1,395.5,985.2z"/>
	<path d="M1196.2,760.5c1.2,0.8,2.8,1.3,3.5,2.4c4.2,6.7,8.1,13.5,12.2,20.3c-0.3,0.3-0.6,0.7-0.9,1c-1.2-0.9-2.8-1.5-3.6-2.6
		c-4.1-6.6-8-13.3-12-20C1195.7,761.2,1195.9,760.8,1196.2,760.5z"/>
</g>
</svg>
